<svg width="800" height="800" viewBox="0 0 800 800" fill="none" xmlns="http://www.w3.org/2000/svg">
<path d="M589.269 699.5H210.731C149.856 699.5 100.5 650.144 100.5 589.269V210.731C100.5 149.856 149.856 100.5 210.731 100.5H589.269C650.144 100.5 699.5 149.856 699.5 210.731V589.269C699.5 650.144 650.144 699.5 589.269 699.5Z" fill="#D72229" stroke="#D72229"/>
<path d="M272.559 550V230.936H314.825C331.192 230.936 335.988 235.732 335.988 251.379V286.811H338.026C367.343 245.924 401.456 225.42 437.547 225.42C494.801 225.42 527.535 261.571 527.535 335.192V574.521H483.89C469.561 574.521 464.105 568.406 464.105 550V350.24C464.105 303.178 447.079 284.113 418.422 284.113C395.94 284.113 363.206 307.314 335.928 352.998V574.581H292.283C278.014 574.581 272.559 568.406 272.559 550Z" fill="white"/>
</svg>
