 <svg
        width="100%"
        height="100%"
        viewBox="0 0 154 30"
        fill="none"
        xmlns="http://www.w3.org/2000/svg"
      >
        <path
          d="M0 21.4389L0.00528615 7.45329H1.88715C2.61664 7.45329 2.82809 7.66149 2.82809 8.34854V9.90482H2.91795C4.22363 8.11432 5.74076 7.21387 7.34774 7.21387C9.89567 7.21387 11.3546 8.79617 11.3546 12.0284V22.5164H9.41463C8.775 22.5164 8.53184 22.2457 8.53184 21.4389V12.6842C8.53184 10.6231 7.77592 9.7851 6.49667 9.7851C5.49759 9.7851 4.03862 10.8001 2.8228 12.804V22.5164H0.882787C0.243163 22.5112 0 22.2457 0 21.4389Z"
          fill="currentColor"
        />
        <path
          d="M14.6318 18.6894C14.6318 15.8788 17.1216 13.5782 20.8854 13.5782C21.8263 13.5782 22.5558 13.6407 23.1637 13.7604V11.9959C23.1637 10.2939 22.2228 9.36741 20.5259 9.36741C18.644 9.36741 17.7348 10.1117 17.7348 11.2516V12.1781H16.3974C15.7895 12.1781 15.3349 11.668 15.3349 10.7415C15.3349 8.97704 17.3701 7.21777 21.0387 7.21777C24.3478 7.21777 25.9548 8.86253 25.9548 11.5847V22.5255H24.2262C23.5602 22.5255 23.2853 22.286 23.2853 21.7187V20.7298H23.1954C22.043 22.1039 20.7056 22.7337 18.792 22.7337C16.4503 22.7233 14.6266 21.1982 14.6318 18.6894ZM23.1584 18.3043V15.6446C22.4289 15.5248 21.7311 15.4624 20.8801 15.4624C18.8185 15.4624 17.5128 16.6855 17.5128 18.3615C17.5128 19.7669 18.422 20.5424 19.6695 20.5424C21.0915 20.5424 22.4606 19.6159 23.1584 18.3043Z"
          fill="currentColor"
        />
        <path
          d="M30.4111 21.4429L30.4164 7.4572H32.2983C33.0278 7.4572 33.2392 7.6654 33.2392 8.35245V9.90872H33.3291C34.6348 8.11823 36.1519 7.21777 37.7589 7.21777C39.6989 7.21777 40.9464 8.11302 41.5226 9.90872H41.6125C42.9182 8.11823 44.4987 7.21777 46.1057 7.21777C48.6536 7.21777 50.1707 8.80007 50.1707 12.0323V22.5203H48.2307C47.5911 22.5203 47.3479 22.2496 47.3479 21.4429V12.6882C47.3479 10.5645 46.4969 9.78901 45.2229 9.78901C44.2503 9.78901 42.9182 10.5958 41.7605 12.3863V22.5151H39.8152C39.1756 22.5151 38.9377 22.2444 38.9377 21.4376V12.683C38.9377 10.5593 38.1501 9.7838 36.8761 9.7838C35.8717 9.7838 34.4497 10.7988 33.2339 12.8027V22.5151H31.2939C30.6543 22.5203 30.4111 22.2496 30.4111 21.4429Z"
          fill="currentColor"
        />
        <path
          d="M54.627 28.7405L54.6322 7.46274H56.5141C57.2436 7.46274 57.455 7.67093 57.455 8.33196V9.3209H57.5449C58.6973 7.97802 59.9712 7.22852 61.6734 7.22852C64.4962 7.22852 66.6794 9.28967 66.6794 14.5831C66.6794 19.814 63.6715 22.8017 59.9712 22.8017C58.8506 22.8017 58.1475 22.6819 57.4498 22.4113V30.0001H55.5097C54.8701 29.9949 54.627 29.7242 54.627 28.7405ZM63.7984 14.9058C63.7984 10.9032 62.4029 9.70606 60.9175 9.70606C59.7017 9.70606 58.4277 10.5441 57.455 11.9182V20.3449C58.1845 20.6416 58.9087 20.7613 59.8232 20.7613C61.9747 20.7613 63.7984 19.0593 63.7984 14.9058Z"
          fill="currentColor"
        />
        <path
          d="M69.1377 15.086C69.1377 9.91749 72.1138 7.19531 75.3331 7.19531C78.5206 7.19531 80.947 9.35015 80.947 13.9825C80.947 14.9975 80.5505 15.5648 79.34 15.5648H72.0239C72.0821 19.2083 73.7842 20.5564 75.941 20.5564C77.6378 20.5564 79.0651 20.2857 80.3708 19.7496L80.6456 20.4366C80.8254 20.8843 80.7038 21.4256 80.2492 21.7223C79.2765 22.3781 77.7277 22.7372 75.5762 22.7372C71.8389 22.7372 69.1377 20.4366 69.1377 15.086ZM78.1559 13.5974C78.1559 10.6982 76.9401 9.32413 75.2115 9.32413C73.5728 9.32413 72.1138 10.8752 72.0239 13.5974H78.1559Z"
          fill="currentColor"
        />
        <path
          d="M84.2237 21.3979L84.229 7.46957H86.0792C86.8086 7.46957 87.0518 7.67777 87.0518 8.45851V10.6706H87.1734C88.3258 8.16183 89.6314 7.23535 91.0006 7.23535C91.3019 7.23535 91.545 7.29781 91.7618 7.41752C92.1847 7.65695 92.3062 8.01609 92.2164 8.58343L92.0366 9.9263C91.7353 9.83781 91.249 9.80658 90.916 9.80658C89.7319 9.80658 88.1249 11.1234 87.0624 13.8977V22.5326H85.1224C84.4616 22.5326 84.2184 22.262 84.2237 21.3979Z"
          fill="currentColor"
        />
        <path
          d="M94.7217 21.4599V9.5042H93.1729V7.47428H94.7217V4.63239C94.7217 1.76447 96.6036 0 99.1832 0C100.246 0 100.732 0.119713 101.245 0.421599C101.668 0.661026 101.758 1.07742 101.641 1.61873L101.43 2.51398C100.732 2.27455 100.092 2.15484 99.3365 2.15484C98.1841 2.15484 97.5445 2.81066 97.5445 4.27845V7.47428H101.033V8.40075C101.033 9.15026 100.669 9.5042 99.7911 9.5042H97.5445V22.5321H95.6045C94.9966 22.5321 94.7217 22.2667 94.7217 21.4599Z"
          fill="currentColor"
        />
        <path
          d="M103.19 17.9947V7.47559H105.072C105.712 7.47559 106.013 7.68378 106.013 8.52178V17.3389C106.013 19.4313 106.864 20.2693 107.985 20.2693C109.047 20.2693 110.385 19.2856 111.569 17.1932V7.48079H113.451C114.117 7.48079 114.392 7.77747 114.392 8.58423V22.5386H112.478C111.839 22.5386 111.569 22.268 111.569 21.4612V20.1183H111.447C110.173 21.9401 108.804 22.7468 107.229 22.7468C104.708 22.7468 103.19 21.1906 103.19 17.9947Z"
          fill="currentColor"
        />
        <path
          d="M119.123 21.4643L119.128 7.47868H121.01C121.74 7.47868 121.951 7.68688 121.951 8.37393V9.93021H122.041C123.347 8.13971 124.864 7.23926 126.476 7.23926C128.416 7.23926 129.664 8.13451 130.24 9.93021H130.33C131.635 8.13971 133.216 7.23926 134.823 7.23926C137.371 7.23926 138.888 8.82156 138.888 12.0538V22.5418H136.948C136.308 22.5418 136.065 22.2711 136.065 21.4643V12.7096C136.065 10.586 135.214 9.81049 133.94 9.81049C132.967 9.81049 131.635 10.6173 130.478 12.4078V22.5365H128.538C127.898 22.5365 127.655 22.2659 127.655 21.4591V12.7044C127.655 10.5808 126.867 9.80529 125.593 9.80529C124.594 9.80529 123.167 10.8202 121.951 12.8241V22.5365H120.011C119.366 22.5365 119.123 22.2711 119.123 21.4643Z"
          fill="currentColor"
        />
        <path
          d="M142.19 15.0997C142.19 9.93116 145.167 7.20898 148.386 7.20898C151.573 7.20898 154 9.36383 154 13.9962C154 15.0112 153.603 15.5785 152.393 15.5785H145.077C145.135 19.2272 146.837 20.57 148.988 20.57C150.691 20.57 152.113 20.2994 153.418 19.7633L153.693 20.4503C153.873 20.898 153.751 21.4393 153.297 21.7359C152.324 22.3918 150.775 22.7509 148.624 22.7509C144.892 22.7509 142.19 20.4503 142.19 15.0997ZM151.203 13.611C151.203 10.7119 149.993 9.3378 148.259 9.3378C146.62 9.3378 145.161 10.8889 145.071 13.611H151.203Z"
          fill="currentColor"
        />
      </svg>